<?xml version="1.0" encoding="UTF-8" standalone="no"?><svg width="299" height="412" viewBox="0 0 299 412" fill="none" xmlns="http://www.w3.org/2000/svg">
<path d="M131 150.187H112.333ZM299 243.52H280.334V262.187H299V243.52ZM243 187.52H224.334V206.187H243V187.52ZM243 206.187H224.334V224.854H243V206.187ZM243 224.854H224.334V243.52H243V224.854ZM243 150.187H224.334V168.854H243V150.187ZM243 150.187H224.334ZM299 187.52H280.334V206.187H299V187.52ZM299 168.854H280.334V187.52H299V168.854ZM299 150.187H280.334V168.854H299V150.187ZM299 131.52H280.334V150.187H299V131.52ZM299 112.854H280.334V131.52H299V112.854ZM299 94.1869H280.334V112.854H299V94.1869ZM299 75.5202H280.334V94.1869H299V75.5202ZM299 56.8535H280.334V75.5202H299V56.8535ZM299 38.1869H280.334V56.8535H299V38.1869ZM299 19.5202H280.334V38.1869H299V19.5202ZM299 206.187H280.334V224.854H299V206.187ZM299 224.854H280.334V243.52H299V224.854ZM299 262.187H280.334V280.854H299V262.187ZM299 280.854H280.334V299.52H299V280.854ZM299 299.52H280.334V318.187H299V299.52ZM280.334 318.187H261.667V336.854H280.334V318.187ZM280.334 336.854H261.667V355.52H280.334V336.854ZM280.334 355.52H261.667V374.187H280.334V355.52ZM261.667 374.187H243V392.854H261.667V374.187ZM261.667 392.854H243V411.52H261.667V392.854ZM243 392.854H224.334V411.52H243V392.854ZM224.334 392.854H205.667V411.52H224.334V392.854ZM205.667 392.854H187V411.52H205.667V392.854ZM187 392.854H168.334V411.52H187V392.854ZM168.334 392.854H149.667V411.52H168.334V392.854ZM149.667 392.854H131V411.52H149.667V392.854ZM131 392.854H112.333V411.52H131V392.854ZM112.333 392.854H93.6668V411.52H112.333V392.854ZM93.6668 392.854H75.0002V411.52H93.6668V392.854ZM243 168.854H224.334V187.52H243V168.854ZM131 150.187H112.333V168.854H131V150.187ZM131 168.854H112.333V187.52H131V168.854ZM131 187.52H112.333V206.187H131V187.52ZM131 206.187H112.333V224.854H131V206.187ZM75.0002 150.187H56.3335ZM75.0002 150.187H56.3335V168.854H75.0002V150.187ZM75.0002 131.52H56.3335V150.187H75.0002V131.52ZM131 131.52H112.333V150.187H131V131.52ZM261.667 0.853516H243V19.5202H261.667V0.853516ZM149.667 131.52H131V150.187H149.667V131.52ZM168.334 131.52H149.667V150.187H168.334V131.52ZM187 150.187H168.334V168.854H187V150.187ZM187 168.854H168.334V187.52H187V168.854ZM187 187.52H168.334V206.187H187V187.52ZM187 206.187H168.334V224.854H187V206.187ZM187 224.854H168.334V243.52H187V224.854ZM205.667 243.52H187V262.187H205.667V243.52ZM224.334 243.52H205.667V262.187H224.334V243.52ZM168.334 243.52H149.667V262.187H168.334V243.52ZM205.667 131.52H187V150.187H205.667V131.52ZM224.334 131.52H205.667V150.187H224.334V131.52ZM280.334 0.853516H261.667V19.5202H280.334V0.853516ZM75.0002 168.854H56.3335V187.52H75.0002V168.854ZM75.0002 187.52H56.3335V206.187H75.0002V187.52ZM93.6668 206.187H75.0002V224.854H93.6668V206.187ZM112.333 206.187H93.6668V224.854H112.333V206.187ZM131 224.854H112.333V243.52H131V224.854ZM149.667 243.52H131V262.187H149.667V243.52ZM149.667 262.187H131V280.854H149.667V262.187ZM131 280.854H112.333V299.52H131V280.854ZM112.333 280.854H93.6668V299.52H112.333V280.854ZM93.6668 262.187H75.0002V280.854H93.6668V262.187ZM56.3335 187.52H37.6668V206.187H56.3335V187.52ZM37.6668 187.52H19.0002V206.187H37.6668V187.52ZM19.0002 206.187H0.333496V224.854H19.0002V206.187ZM19.0002 224.854H0.333496V243.52H19.0002V224.854ZM19.0002 243.52H0.333496V262.187H19.0002V243.52ZM19.0002 262.187H0.333496V280.854H19.0002V262.187ZM37.6668 280.854H19.0002V299.52H37.6668V280.854ZM37.6668 299.52H19.0002V318.187H37.6668V299.52ZM56.3335 318.187H37.6668V336.854H56.3335V318.187ZM75.0002 336.854H56.3335V355.52H75.0002V336.854ZM75.0002 355.52H56.3335V374.187H75.0002V355.52ZM93.6668 374.187H75.0002V392.854H93.6668V374.187ZM93.6668 392.854H75.0002V411.52H93.6668V392.854ZM93.6668 0.853516H75.0002V19.5202H93.6668V0.853516ZM112.333 0.853516H93.6668V19.5202H112.333V0.853516ZM131 19.5202H112.333V38.1869H131V19.5202ZM131 38.1869H112.333V56.8535H131V38.1869ZM131 56.8535H112.333V75.5202H131V56.8535ZM131 75.5202H112.333V94.1869H131V75.5202ZM131 94.1869H112.333V112.854H131V94.1869ZM131 131.52V112.854H112.333V131.52M75.0002 19.5202H56.3335V38.1869H75.0002V19.5202ZM75.0002 38.1869H56.3335V56.8535H75.0002V38.1869ZM75.0002 56.8535H56.3335V75.5202H75.0002V56.8535ZM75.0002 75.5202H56.3335V94.1869H75.0002V75.5202ZM75.0002 94.1869H56.3335V112.854H75.0002V94.1869ZM75.0002 131.52V112.854H56.3335V131.52M243 56.8535H224.334V75.5202H243V56.8535ZM243 38.1869H224.334V56.8535H243V38.1869ZM243 19.5202H224.334V38.1869H243V19.5202ZM243 75.5202H224.334V94.1869H243V75.5202ZM243 94.1869H224.334V112.854H243V94.1869ZM243 112.854H224.334V131.52H243V112.854ZM243 131.52H224.334V150.187H243V131.52Z" fill="#817191"/>
</svg>
